#define boxleft16_width 7
#define boxleft16_height 14
static unsigned char boxleft16_bits[] = {
   0x7e, 0x7e, 0x7e, 0x7e, 0x7e, 0x7e, 0x7e, 0x7e, 0x7e, 0x7e, 0x7e, 0x7e,
   0x7e, 0x7e };
