#define boxright16_width 7
#define boxright16_height 14
static unsigned char boxright16_bits[] = {
   0x3f, 0x3f, 0x3f, 0x3f, 0x3f, 0x3f, 0x3f, 0x3f, 0x3f, 0x3f, 0x3f, 0x3f,
   0x3f, 0x3f };
